<svg xmlns="http://www.w3.org/2000/svg" viewBox="0 0 960 99">
  <style>
    .st0{fill:#fff}
  </style>
  <g id="Layer_2">
    <g id="XMLID_4_">
      <path id="XMLID_5_" class="st0" d="M24.1 96.4c-6.2-1.6-11.4-3.8-15.4-6.6-1.6-1.2-2.7-2.4-3.3-3.7-.7-1.3-1-2.9-1-4.9 0-2.7.8-5.1 2.5-7.1 1.6-2 3.6-3 5.7-3 1.2 0 2.3.2 3.4.5 1.1.4 2.5 1 4.1 2.1 3.7 2.1 7.4 3.6 11.1 4.5 3.7.9 7.9 1.4 12.5 1.4 5.4 0 9.5-.8 12.2-2.4 2.8-1.6 4.2-3.9 4.2-7 0-2.1-1.3-3.9-3.9-5.4-2.6-1.5-7.5-3-14.8-4.4-9-1.9-16.1-4.2-21.2-6.8-5.1-2.6-8.7-5.8-10.7-9.4-2.1-3.6-3.1-8-3.1-13.1 0-5.8 1.7-11.1 5.2-15.9C15 10.4 19.8 6.7 25.9 4 32 1.3 38.8 0 46.3 0 53 0 58.9.7 64.1 2.1 69.3 3.6 74 5.9 78.3 9c1.6 1.2 2.8 2.4 3.5 3.8.7 1.3 1 2.9 1 4.9 0 2.7-.8 5.1-2.4 7.1-1.6 2-3.5 3-5.7 3-1.2 0-2.3-.2-3.3-.5s-2.4-1-4.2-2.1c-.5-.3-1.8-1-3.9-2.1-2.1-1.1-4.6-2.1-7.5-2.7-2.9-.7-6-1-9.4-1-4.6 0-8.4.9-11.2 2.7-2.8 1.8-4.2 4.1-4.2 7 0 1.7.5 3.1 1.5 4.2s2.9 2.2 5.6 3.2c2.7 1 6.8 2.1 12.2 3.2 8.7 1.9 15.6 4.2 20.6 6.9 5 2.7 8.6 5.8 10.7 9.4 2.1 3.6 3.1 7.7 3.1 12.6 0 6-1.7 11.3-5.1 15.9-3.3 4.5-8 8-14.1 10.5s-13.1 3.8-21.1 3.8c-7.3 0-14.1-.8-20.3-2.4z"/>
      <path id="XMLID_7_" class="st0" d="M102.3 95c-2.2-2.2-3.3-5.3-3.3-9.1V12.8c0-3.7 1-6.6 3-8.6s4.9-3 8.6-3h35c10.7 0 19 2.7 24.9 8.1 5.9 5.4 8.9 13 8.9 22.6 0 9.6-3 17.1-9 22.6s-14.2 8.2-24.8 8.2h-21.5v23.2c0 3.8-1.1 6.9-3.4 9.1-2.3 2.2-5.4 3.3-9.3 3.3-3.9.1-6.9-1-9.1-3.3zm39.8-51.2c4.6 0 8.1-1 10.3-2.9 2.2-1.9 3.3-4.9 3.3-8.9 0-7.9-4.6-11.9-13.7-11.9h-18v23.6h18.1z"/>
      <path id="XMLID_10_" class="st0" d="M194.5 94.6c-2-2-3-4.9-3-8.7v-73c0-3.7 1.1-6.7 3.3-9 2.2-2.2 5.3-3.3 9.1-3.3 3.9 0 7 1.1 9.3 3.3 2.3 2.2 3.4 5.2 3.4 9v64.4H248c7.9 0 11.9 3.4 11.9 10.3 0 3.5-1 6-2.9 7.7-2 1.6-4.9 2.5-9 2.5h-45c-3.6-.2-6.5-1.2-8.5-3.2z"/>
      <path id="XMLID_12_" class="st0" d="M273 95c-2.2-2.2-3.3-5.3-3.3-9.1V12.8c0-3.7 1.1-6.7 3.3-9 2.2-2.2 5.3-3.3 9.1-3.3 3.9 0 7 1.1 9.3 3.3 2.3 2.2 3.4 5.2 3.4 9v73.1c0 3.8-1.1 6.9-3.4 9.1-2.3 2.2-5.4 3.3-9.3 3.3-3.8.1-6.9-1-9.1-3.3z"/>
      <path id="XMLID_14_" class="st0" d="M337.5 94.9c-2.3-2.2-3.5-5.2-3.5-9V21.6h-19.3c-4 0-7-.8-9-2.5s-2.9-4.3-2.9-7.7c0-3.5 1-6 2.9-7.7 2-1.6 4.9-2.5 9-2.5h64c4 0 7 .8 9 2.5 2 1.6 2.9 4.2 2.9 7.7s-1 6-2.9 7.7c-2 1.7-4.9 2.5-9 2.5h-19.3V86c0 3.7-1.2 6.7-3.5 9-2.3 2.2-5.4 3.3-9.2 3.3-3.8 0-6.8-1.2-9.2-3.4z"/>
      <path id="XMLID_16_" class="st0" d="M637.7 3.9c2.2 2.3 3.3 5.2 3.3 8.9v73.1c0 3.7-1.1 6.7-3.3 9-2.2 2.3-5 3.4-8.5 3.4-4.1 0-7.2-1.4-9.3-4.1l-41.6-51.8v43.5c0 3.7-1 6.7-3.1 9s-4.9 3.4-8.5 3.4c-3.5 0-6.3-1.1-8.5-3.4s-3.3-5.3-3.3-9V12.8c0-3.6 1.1-6.6 3.3-8.9 2.2-2.3 5-3.4 8.5-3.4 3.9 0 7 1.4 9.2 4.1l41.6 51.7V12.8c0-3.7 1.1-6.7 3.2-9 2.1-2.2 4.9-3.3 8.4-3.3s6.4 1.1 8.6 3.4z"/>
      <path id="XMLID_18_" class="st0" d="M752.1 87.2c0 3-1.2 5.6-3.6 7.7-2.4 2.1-5.2 3.1-8.3 3.1-2.1 0-4-.5-5.7-1.6-1.7-1.1-3.1-2.7-4.1-4.9l-6.2-13.8h-44.3l-6.3 13.8c-1 2.2-2.4 3.8-4.2 4.9-1.8 1.1-3.7 1.6-5.8 1.6-3.1 0-5.9-1-8.4-3.1s-3.8-4.6-3.8-7.7c0-1.6.4-3.3 1.2-5.1L688.8 8c1.2-2.5 2.9-4.4 5.3-5.7 2.3-1.3 4.9-2 7.7-2 2.7 0 5.3.7 7.7 2 2.4 1.3 4.1 3.2 5.3 5.7l36.1 74.1c.8 1.8 1.2 3.4 1.2 5.1zm-63.7-28.5h27.3L702 28.3l-13.6 30.4z"/>
      <path id="XMLID_21_" class="st0" d="M845.2 3.9c2.2 2.3 3.3 5.2 3.3 8.9v73.1c0 3.7-1.1 6.7-3.3 9-2.2 2.3-5 3.4-8.5 3.4-4.1 0-7.2-1.4-9.3-4.1L786 42.5V86c0 3.7-1 6.7-3.1 9s-4.9 3.4-8.5 3.4c-3.5 0-6.3-1.1-8.5-3.4s-3.3-5.3-3.3-9V12.8c0-3.6 1.1-6.6 3.3-8.9 2.2-2.3 5-3.4 8.5-3.4 3.9 0 7 1.4 9.2 4.1l41.6 51.7V12.8c0-3.7 1.1-6.7 3.2-9 2.1-2.2 4.9-3.3 8.4-3.3 3.4 0 6.2 1.1 8.4 3.4z"/>
      <path id="XMLID_23_" class="st0" d="M886.3 92.7c-7.2-4.1-12.8-9.8-16.7-17.2-3.9-7.4-5.9-16.2-5.9-26.2s2-18.7 5.9-26.2C873.4 15.7 879 10 886.3 6c7.2-4 15.8-6 25.6-6s18.4 2 25.6 6c7.2 4 12.8 9.7 16.7 17.2 3.9 7.4 5.8 16.2 5.8 26.2s-2 18.8-5.9 26.2c-3.9 7.4-9.5 13.2-16.7 17.2-7.2 4.1-15.7 6.1-25.5 6.1-9.9-.1-18.4-2.1-25.6-6.2zM929 71.8c4.1-5.1 6.2-12.6 6.2-22.5 0-9.8-2.1-17.3-6.2-22.4-4.1-5.1-9.8-7.7-17-7.7-7.3 0-13 2.5-17.1 7.6-4.1 5.1-6.2 12.6-6.2 22.5s2.1 17.5 6.2 22.6c4.1 5.1 9.8 7.7 17.1 7.7 7.2-.1 12.9-2.7 17-7.8z"/>
    </g>
  </g>
  <g id="Layer_3">
    <circle id="XMLID_105_" class="st0" cx="428.8" cy="85.4" r="12.7"/>
    <circle id="XMLID_57_" class="st0" cx="453.4" cy="63.5" r="12.7"/>
    <circle id="XMLID_56_" class="st0" cx="478" cy="40.3" r="12.7"/>
    <circle id="XMLID_55_" class="st0" cx="502.6" cy="18.4" r="12.7"/>
  </g>
</svg>
